<svg xml:space="preserve" style="enable-background:new 0 0 200 200;" viewBox="0 0 200 200" y="0px" x="0px" xmlns:xlink="http://www.w3.org/1999/xlink" xmlns="http://www.w3.org/2000/svg" id="Layer_1" version="1.1">
<style type="text/css">
	.st0{fill:none;stroke:#2C2C2C;stroke-width:1.9901;stroke-miterlimit:10;}
</style>
<g>
	<path d="M103,137.5c23.8,0,43-19.3,43-43c0-23.8-19.3-43-43-43s-43,19.3-43,43S79.2,137.5,103,137.5z" class="st0"></path>
	<path d="M71.5,168h64.6" class="st0"></path>
	<path d="M94.2,168c2.2-6.7,8.7-13,11.6-15.2c4.7-3.5,7.7-3.8,7.7-3.8c11.2-2.1,21.3-7.6,29.1-15.4" class="st0"></path>
	<path d="M103,39c-30.6,0-55.5,24.8-55.5,55.5c0,27.1,19.5,49.7,45.2,54.5c0,0,3,0.3,7.7,3.8c3,2.2,9.4,8.4,11.6,15.2" class="st0"></path>
</g>
</svg>
