<svg xml:space="preserve" viewBox="0 0 200 200" y="0" x="0" xmlns="http://www.w3.org/2000/svg" id="Layer_1" version="1.1"><style>.st0{fill:none;stroke:#2c2c2c;stroke-width:1.866;stroke-miterlimit:10}</style><path d="M121.8 94.9l-22.4 18-19.3-24.2 62.5-50.2L162 62.6l-30.8 24.8c-2.1 1.6-4.7 2.6-7.5 2.6-6.7 0-12.2-5.5-12.2-12.2 0-6.7 5.5-12.2 12.2-12.2 3.4 0 6.4 1.4 8.6 3.6 15.2 15.5 14 43.8 3.3 61-13.3 21.4-41.7 27.7-63.1 14.3-5.5-3.5-10.1-8-13.5-13.1M36 131.4h46.9M72.4 162h46.9M95 162v-10.4" class="st0"></path></svg>