<svg xml:space="preserve" viewBox="0 0 200 200" y="0" x="0" xmlns="http://www.w3.org/2000/svg" id="Layer_1" version="1.1"><style>.st0{fill:none;stroke:#2c2c2c;stroke-width:1.9;stroke-miterlimit:10}</style><path d="M102.1 136.7c5.8 4.7 11 9 11 12.6M113.1 83.1c0 9.9-26.6 19.4-26.6 33.1 0 6.8 6.6 13 13.3 18.6" class="st0"></path><path d="M102.3 100.3c5.7 4.8 10.8 10 10.8 16 0 13.7-26.6 24.8-26.6 33.1M86.5 83.1c0 5 6.6 9.8 13.3 15.2" class="st0"></path><path d="M84.4 47.8h-25v13.9h25.1c8.9 0 25.8-6.5 25.8-18.3 0-8.7-7.6-11-10.6-11s-10.6 2.3-10.6 11c0 11.8 16.9 18.3 25.8 18.3H140V167H59.4V70.7M141 47.8h-26.2" class="st0"></path></svg>