<svg xml:space="preserve" viewBox="0 0 200 200" y="0" x="0" xmlns="http://www.w3.org/2000/svg" id="Layer_1" version="1.1"><style>.st0{fill:none;stroke:#2c2c2c;stroke-width:1.9;stroke-miterlimit:10}</style><path d="M116.3 84.2V45h23v39.2M65.2 84.2V45h23.1v39.2M154.5 154.5h-108V88.9h18.7v39.2c0 6.4 5.2 11.5 11.5 11.5 6.4 0 11.5-5.2 11.5-11.5V88.9h3.2c3.5 0 6 .7 8.3 2.6 2.6 2.3 10 9 10 15.4 0 6.7-5.2 8.4-7.5 8.4s-7.5-1.8-7.5-8.4c0-6.4 7.4-13.1 10-15.4 2.2-1.9 4.8-2.6 8.3-2.6h3.2v39.2c0 6.4 5.2 11.5 11.5 11.5 6.4 0 11.5-5.2 11.5-11.5V88.9h15.1" class="st0"></path></svg>